# xmcd
#
# Track frame offsets:
#	150
#	22327
#	43297
#	61807
#	85205
#	107215
#	127545
#	146687
#	164452
#	185550
#	202985
#	224300
#	247302
#	264512
#	285615
#	307640
#
# Disc length: 4385 seconds
#
# Revision: 1
# Processed by: cddbd v1.5.1PL0 Copyright (c) Steve Scherf et al.
# Submitted via: CDex 1.50Beta5
#
DISCID=ec111f10
DTITLE=五木ひろし - マイソング<作品集>
DYEAR=1999
DGENRE=World
TTITLE0=渚の女
TTITLE1=愛のバラードを…となりで
TTITLE2=萩の花郷
TTITLE3=千日草
TTITLE4=船宿
TTITLE5=北の物語り
TTITLE6=粋な男
TTITLE7=デュオ しのび逢い
TTITLE8=男の酒場
TTITLE9=あなた
TTITLE10=由良川慕情
TTITLE11=そして…花送り
TTITLE12=冬子
TTITLE13=女ひとり
TTITLE14=絆
TTITLE15=契り
EXTD=
EXTT0=
EXTT1=
EXTT2=
EXTT3=
EXTT4=
EXTT5=
EXTT6=
EXTT7=
EXTT8=
EXTT9=
EXTT10=
EXTT11=
EXTT12=
EXTT13=
EXTT14=
EXTT15=
PLAYORDER=
